<svg width="245.17" height="36" viewBox="0 0 245.17 36" fill="none" xmlns="http://www.w3.org/2000/svg">
<path d="M20.8163 32.6281H20.2534C20.2534 32.6221 20.2506 32.6161 20.2495 32.6105L20.2341 32.5416C20.2242 32.4963 20.2135 32.4514 20.2025 32.4069C20.1978 32.3859 20.1926 32.365 20.1875 32.344C20.1729 32.2852 20.1575 32.2265 20.1417 32.1677L20.137 32.1509C20.1196 32.0873 20.1014 32.0239 20.0825 31.9608L20.0635 31.8998C20.0505 31.8564 20.0367 31.8133 20.0241 31.7703C20.0166 31.7467 20.0087 31.7235 20.0012 31.7003C19.9874 31.6588 19.9731 31.6172 19.9585 31.5761C19.951 31.5544 19.9431 31.5323 19.9356 31.5109C19.9172 31.4593 19.8983 31.408 19.8788 31.3571C19.8745 31.3463 19.8709 31.3358 19.8666 31.3249C19.8437 31.2651 19.8196 31.2056 19.7951 31.1461C19.7864 31.1243 19.7773 31.103 19.7683 31.0817C19.7517 31.0443 19.7351 31.0031 19.7181 30.9642L19.6862 30.8919C19.6696 30.8545 19.6526 30.8171 19.6352 30.7797C19.6246 30.7565 19.6135 30.7329 19.6025 30.7097C19.5823 30.6666 19.563 30.624 19.5405 30.5817C19.5322 30.5656 19.5247 30.5491 19.5164 30.5327C19.4884 30.4769 19.4596 30.4204 19.4304 30.3665L19.3909 30.2965L19.3352 30.1951L19.2918 30.1202C19.2736 30.0888 19.2555 30.0574 19.2369 30.0259C19.2223 30.0005 19.2073 29.975 19.1923 29.9511C19.1718 29.917 19.1529 29.8837 19.1303 29.85L19.0735 29.7587C19.0467 29.7168 19.0198 29.6745 18.9922 29.633C18.9748 29.6068 18.9575 29.581 18.9397 29.5551C18.9219 29.5293 18.9026 29.4998 18.8836 29.4724C18.8647 29.4451 18.8442 29.4178 18.8268 29.3908C18.8094 29.3639 18.7905 29.3396 18.7719 29.316C18.7534 29.2924 18.7324 29.261 18.7123 29.2337L18.6567 29.1588C18.6172 29.109 18.5809 29.0593 18.5422 29.0091L18.4881 28.9406C18.4652 28.9118 18.4415 28.8834 18.4182 28.8549L18.3661 28.7921C18.342 28.7632 18.3176 28.7348 18.2931 28.706L18.2418 28.6469L18.1652 28.56L18.1198 28.5099C18.0254 28.4062 17.9287 28.304 17.8297 28.2045L17.7862 28.1607L17.6954 28.072L17.6508 28.0293C17.6192 27.999 17.5877 27.9691 17.5557 27.9395L17.5229 27.9096C17.4112 27.8067 17.2963 27.7064 17.1795 27.6102L17.1475 27.5836C17.1115 27.5537 17.0752 27.5241 17.0386 27.4949L17.0023 27.4657C16.9628 27.4358 16.9269 27.4062 16.8886 27.3767L16.8692 27.3621C16.7401 27.2633 16.6079 27.1671 16.4745 27.0747L16.4559 27.0616C16.4137 27.0327 16.3714 27.0043 16.3288 26.9762L16.3008 26.9579C16.2574 26.9291 16.2135 26.901 16.1697 26.8729L16.1622 26.8684C16.017 26.7764 15.8689 26.6882 15.7181 26.6039L15.7122 26.6001C15.6645 26.5735 15.6167 26.5477 15.5689 26.5219L15.548 26.5107C15.2938 26.3747 15.0327 26.2499 14.7648 26.1364L14.7482 26.1293C14.6776 26.0994 14.6065 26.0706 14.5347 26.0421H15.9475C16.1776 26.0421 16.3643 25.791 16.3643 25.4808C16.3643 25.1705 16.1776 24.9194 15.9475 24.9194H15.5267C15.5527 24.8565 15.5816 24.7854 15.6127 24.7053C16.0106 24.4703 16.7109 23.9696 17.4057 23.0497L17.4112 23.0426C17.4639 22.9737 17.5156 22.9025 17.5664 22.8289L17.5766 22.8143C17.6271 22.742 17.6777 22.6676 17.7274 22.5897L17.7408 22.5691C17.7645 22.5317 17.7882 22.4943 17.8119 22.4569C17.8119 22.4569 17.8119 22.4539 17.8147 22.452C17.8391 22.4146 17.8632 22.3734 17.8873 22.3334L17.9027 22.3075C17.9232 22.2731 17.9441 22.2379 17.9643 22.2024C17.9682 22.196 17.9722 22.1897 17.9757 22.1829C17.999 22.1425 18.0223 22.1013 18.0452 22.0598L18.061 22.031C18.0799 21.9965 18.0985 21.9617 18.117 21.9266C18.1226 21.9168 18.1281 21.9067 18.1332 21.8966C18.1553 21.8543 18.1774 21.8117 18.1995 21.7682L18.2149 21.7379C18.2323 21.7028 18.2501 21.6668 18.2674 21.6309L18.2864 21.5935C18.3077 21.5493 18.3286 21.5044 18.3495 21.4591L18.3626 21.4303C18.3799 21.3929 18.3969 21.3555 18.4139 21.318L18.434 21.2731C18.4537 21.2278 18.4735 21.1822 18.4924 21.1362C18.496 21.1279 18.4995 21.1193 18.5027 21.1111C18.5205 21.0688 18.5378 21.0258 18.5552 20.9823L18.5749 20.9329C18.5911 20.8918 18.6073 20.8502 18.6231 20.8087L18.6349 20.7773C18.6535 20.7279 18.6716 20.6773 18.6898 20.6276L18.7088 20.5744C18.723 20.5347 18.7368 20.4943 18.7506 20.4539C18.7557 20.4389 18.7609 20.424 18.7656 20.409C18.783 20.3574 18.8003 20.3046 18.8173 20.2518C18.8228 20.2335 18.8288 20.2144 18.8343 20.1972L18.8738 20.0741C18.8789 20.0561 18.8844 20.0366 18.8896 20.0205C18.9057 19.9663 18.9219 19.9109 18.9373 19.8551C18.9424 19.8375 18.9472 19.8196 18.9519 19.8016C18.9638 19.7586 18.9756 19.7155 18.9871 19.6717C18.9922 19.6519 18.9973 19.6321 19.0028 19.6122C19.0175 19.5546 19.0321 19.4966 19.0463 19.4378L19.0581 19.3888C19.0692 19.342 19.0802 19.2949 19.0909 19.2473L19.1051 19.1837C19.1185 19.1227 19.1319 19.0617 19.1446 18.9996C19.1473 18.9876 19.1497 18.9753 19.1521 18.9622C19.1631 18.9087 19.1738 18.8544 19.184 18.8001C19.1884 18.778 19.1923 18.756 19.1967 18.7339C19.2069 18.6781 19.2168 18.6216 19.2267 18.5658C19.2286 18.5539 19.231 18.5423 19.233 18.5307C19.244 18.4648 19.2548 18.3984 19.2654 18.3316C19.2689 18.3091 19.2725 18.2867 19.2756 18.2638C19.2839 18.2096 19.2918 18.1549 19.2997 18.0995L19.3068 18.0486C19.3163 17.9798 19.3254 17.9105 19.334 17.8402C19.3368 17.8181 19.3392 17.796 19.3419 17.7736C19.3488 17.7177 19.3551 17.6615 19.3609 17.6052C19.3633 17.585 19.3656 17.5651 19.3676 17.5449C19.3752 17.4726 19.3823 17.3996 19.3889 17.326C19.3889 17.3054 19.3925 17.2848 19.394 17.2639C19.3992 17.2047 19.4043 17.1452 19.4087 17.0853C19.4087 17.0633 19.4122 17.0412 19.4138 17.0191C19.4193 16.9428 19.4244 16.8659 19.4292 16.7886C19.4292 16.771 19.4292 16.7511 19.4319 16.7354C19.4355 16.6711 19.439 16.6063 19.4418 16.5412C19.4418 16.5176 19.4418 16.494 19.445 16.4705C19.4481 16.39 19.4513 16.3092 19.4537 16.2272C19.4537 16.216 19.4537 16.2044 19.4537 16.1928C19.4558 16.1199 19.4573 16.0463 19.4584 15.972C19.4584 15.9476 19.4584 15.9233 19.4584 15.899C19.4584 15.8191 19.4584 15.7388 19.4584 15.658V15.6393C19.4584 15.5532 19.4584 15.466 19.4584 15.3773V15.3024C19.4584 15.2276 19.4552 15.149 19.4533 15.0712V15.0289C19.4505 14.9391 19.4469 14.8481 19.4434 14.7568C19.4434 14.7332 19.441 14.7093 19.4402 14.6857C19.4368 14.6088 19.4329 14.5315 19.4284 14.4537C19.4284 14.4346 19.4284 14.4162 19.4252 14.3956C19.4197 14.3021 19.4136 14.2078 19.4071 14.1127L19.4023 14.0465C19.3964 13.9671 19.3905 13.8874 19.3838 13.807C19.3838 13.7838 19.3802 13.7606 19.3783 13.7374C19.37 13.6401 19.3609 13.5416 19.3514 13.4428C19.3514 13.4241 19.3475 13.4054 19.3459 13.3863C19.3376 13.3021 19.3285 13.2172 19.3194 13.1315C19.3167 13.1056 19.3139 13.0802 19.3108 13.0544C19.2997 12.9526 19.2879 12.8504 19.2752 12.7467C19.2752 12.734 19.2717 12.7213 19.2701 12.7093C19.2588 12.6165 19.2468 12.5232 19.2342 12.4294C19.2302 12.4017 19.2267 12.374 19.2227 12.3463C19.208 12.24 19.1929 12.1328 19.1773 12.0248C17.5983 1.3686 6.40876 3.09798 6.40876 3.09798L6.76719 5.38761L0 12.1652L0.295667 14.7822L2.85917 16.2792C2.97345 16.0038 3.12017 15.7416 3.29655 15.4974C4.95055 13.6887 8.15947 12.2688 9.07805 11.9743C9.26201 11.9155 9.36662 11.886 9.36662 11.886C4.97266 17.2773 5.47241 23.4538 5.66821 24.9261C5.46452 24.9635 5.30701 25.1967 5.30701 25.4811C5.30701 25.791 5.49373 26.0425 5.72387 26.0425H7.13668C4.78699 26.9749 2.92185 28.7509 1.94848 30.9825C1.94734 30.9856 1.94602 30.9886 1.94454 30.9915C1.87269 31.1572 1.80585 31.3252 1.74401 31.4956C1.74411 31.4973 1.74411 31.4991 1.74401 31.5008C1.72743 31.5472 1.71124 31.5936 1.69545 31.6404C1.68953 31.6573 1.68361 31.6741 1.67808 31.6913C1.66387 31.7332 1.65071 31.7755 1.63861 31.8182C1.6315 31.8399 1.62479 31.862 1.61808 31.8837C1.60545 31.9237 1.59321 31.9641 1.58137 32.0046L1.56005 32.0794C1.549 32.1168 1.53795 32.1569 1.52768 32.1958C1.52018 32.2235 1.51308 32.2508 1.50597 32.2785C1.4965 32.3159 1.48663 32.3534 1.47755 32.3908C1.46847 32.4282 1.45978 32.4656 1.4511 32.5053C1.44242 32.545 1.43136 32.5914 1.42189 32.6348H0.85858C0.750258 32.6325 0.642551 32.6508 0.541778 32.6885C0.441006 32.7263 0.3492 32.7827 0.271747 32.8545C0.194294 32.9264 0.13275 33.0122 0.0907365 33.1068C0.0487226 33.2015 0.0270812 33.3032 0.0270812 33.4059C0.0270812 33.5086 0.0487226 33.6103 0.0907365 33.705C0.13275 33.7997 0.194294 33.8855 0.271747 33.9573C0.3492 34.0291 0.441006 34.0856 0.541778 34.1233C0.642551 34.161 0.750258 34.1793 0.85858 34.1771H20.8234C20.9318 34.1793 21.0395 34.161 21.1402 34.1233C21.241 34.0856 21.3328 34.0291 21.4103 33.9573C21.4877 33.8855 21.5493 33.7997 21.5913 33.705C21.6333 33.6103 21.6549 33.5086 21.6549 33.4059C21.6549 33.3032 21.6333 33.2015 21.5913 33.1068C21.5493 33.0122 21.4877 32.9264 21.4103 32.8545C21.3328 32.7827 21.241 32.7263 21.1402 32.6885C21.0395 32.6508 20.9318 32.6325 20.8234 32.6348L20.8163 32.6281Z" fill="#595653"/>
<path d="M44.2035 32.6281H43.6406C43.6406 32.6221 43.6379 32.6161 43.6367 32.6105L43.6213 32.5416C43.6114 32.4963 43.6008 32.4514 43.5897 32.4069C43.585 32.3859 43.5798 32.365 43.5747 32.344C43.5601 32.2852 43.5447 32.2265 43.5289 32.1677L43.5242 32.1509C43.5068 32.0873 43.4886 32.0239 43.4697 31.9608L43.4507 31.8998C43.4377 31.8564 43.4239 31.8133 43.4113 31.7703C43.4038 31.7467 43.3959 31.7235 43.3884 31.7003C43.3746 31.6588 43.3603 31.6172 43.3457 31.5761C43.3382 31.5544 43.3303 31.5323 43.3228 31.5109C43.3044 31.4593 43.2855 31.408 43.266 31.3571C43.2617 31.3463 43.2581 31.3358 43.2538 31.3249C43.2309 31.2651 43.2068 31.2056 43.1823 31.1461C43.1736 31.1243 43.1646 31.103 43.1555 31.0817C43.1389 31.0443 43.1223 31.0031 43.1053 30.9642L43.0734 30.8919C43.0568 30.8545 43.0398 30.8171 43.0224 30.7797C43.0118 30.7565 43.0007 30.7329 42.9897 30.7097C42.9695 30.6666 42.9502 30.624 42.9277 30.5817C42.9194 30.5656 42.9119 30.5491 42.9036 30.5327C42.8756 30.4769 42.8468 30.4204 42.8176 30.3665L42.7781 30.2965L42.7224 30.1951L42.679 30.1202C42.6608 30.0888 42.6427 30.0574 42.6241 30.0259C42.6095 30.0005 42.5945 29.975 42.5795 29.9511C42.559 29.917 42.5401 29.8837 42.5176 29.85L42.4607 29.7587C42.4339 29.7168 42.407 29.6745 42.3794 29.633C42.362 29.6068 42.3447 29.581 42.3269 29.5551C42.3091 29.5293 42.2898 29.4998 42.2708 29.4724C42.2519 29.4451 42.2314 29.4178 42.214 29.3908C42.1966 29.3639 42.1777 29.3396 42.1591 29.316C42.1406 29.2924 42.1197 29.261 42.0995 29.2337L42.0439 29.1588C42.0044 29.109 41.9681 29.0593 41.9294 29.0091L41.8753 28.9406C41.8524 28.9118 41.8287 28.8834 41.8054 28.8549L41.7533 28.7921C41.7292 28.7632 41.7048 28.7348 41.6803 28.706L41.629 28.6469L41.5524 28.56L41.507 28.5099C41.4127 28.4062 41.3159 28.304 41.2169 28.2045L41.1734 28.1607L41.0826 28.072L41.038 28.0293C41.0065 27.999 40.9749 27.9691 40.9429 27.9395L40.9101 27.9096C40.7984 27.8067 40.6836 27.7064 40.5667 27.6102L40.5347 27.5836C40.4987 27.5537 40.4624 27.5241 40.4258 27.4949L40.3895 27.4657C40.35 27.4358 40.3141 27.4062 40.2758 27.3767L40.2564 27.3621C40.1273 27.2633 39.9951 27.1671 39.8617 27.0747L39.8431 27.0616C39.8009 27.0327 39.7587 27.0043 39.716 26.9762L39.688 26.9579C39.6446 26.9291 39.6008 26.901 39.5569 26.8729L39.5494 26.8684C39.4042 26.7764 39.2561 26.6882 39.1053 26.6039L39.0994 26.6001C39.0517 26.5735 39.0039 26.5477 38.9561 26.5219L38.9352 26.5107C38.681 26.3747 38.4199 26.2499 38.152 26.1364L38.1354 26.1293C38.0648 26.0994 37.9937 26.0706 37.9219 26.0421H39.3347C39.5648 26.0421 39.7515 25.791 39.7515 25.4808C39.7515 25.1705 39.5648 24.9194 39.3347 24.9194H38.9139C38.9399 24.8565 38.9688 24.7854 38.9999 24.7053C39.3979 24.4703 40.0981 23.9696 40.7929 23.0497L40.7984 23.0426C40.8511 22.9737 40.9028 22.9025 40.9536 22.8289L40.9638 22.8143C41.0144 22.742 41.0649 22.6676 41.1146 22.5897L41.128 22.5691C41.1517 22.5317 41.1754 22.4943 41.1991 22.4569C41.1991 22.4569 41.1991 22.4539 41.2019 22.452C41.2263 22.4146 41.2504 22.3734 41.2745 22.3334L41.2899 22.3075C41.3104 22.2731 41.3313 22.2379 41.3515 22.2024C41.3554 22.196 41.3594 22.1897 41.3629 22.1829C41.3862 22.1425 41.4095 22.1013 41.4324 22.0598L41.4482 22.031C41.4671 21.9965 41.4857 21.9617 41.5042 21.9266C41.5098 21.9168 41.5153 21.9067 41.5204 21.8966C41.5425 21.8543 41.5646 21.8117 41.5867 21.7682L41.6021 21.7379C41.6195 21.7028 41.6373 21.6668 41.6546 21.6309L41.6736 21.5935C41.6949 21.5493 41.7158 21.5044 41.7367 21.4591L41.7498 21.4303C41.7671 21.3929 41.7841 21.3555 41.8011 21.318L41.8212 21.2731C41.841 21.2278 41.8607 21.1822 41.8796 21.1362C41.8832 21.1279 41.8867 21.1193 41.8899 21.1111C41.9077 21.0688 41.925 21.0258 41.9424 20.9823L41.9621 20.9329C41.9783 20.8918 41.9945 20.8502 42.0103 20.8087L42.0221 20.7773C42.0407 20.7279 42.0589 20.6773 42.077 20.6276L42.096 20.5744C42.1102 20.5347 42.124 20.4943 42.1378 20.4539C42.1429 20.4389 42.1481 20.424 42.1528 20.409C42.1702 20.3574 42.1875 20.3046 42.2045 20.2518C42.21 20.2335 42.216 20.2144 42.2215 20.1972L42.261 20.0741C42.2661 20.0561 42.2716 20.0366 42.2768 20.0205C42.2929 19.9663 42.3091 19.9109 42.3245 19.8551C42.3297 19.8375 42.3344 19.8196 42.3391 19.8016C42.351 19.7586 42.3628 19.7155 42.3743 19.6717C42.3794 19.6519 42.3845 19.6321 42.3901 19.6122C42.4047 19.5546 42.4193 19.4966 42.4335 19.4378L42.4453 19.3888C42.4564 19.342 42.4674 19.2949 42.4781 19.2473L42.4923 19.1837C42.5057 19.1227 42.5191 19.0617 42.5318 18.9996C42.5345 18.9876 42.5369 18.9753 42.5393 18.9622C42.5503 18.9087 42.561 18.8544 42.5712 18.8001C42.5756 18.778 42.5795 18.756 42.5839 18.7339C42.5941 18.6781 42.604 18.6216 42.6139 18.5658C42.6159 18.5539 42.6182 18.5423 42.6202 18.5307C42.6312 18.4648 42.642 18.3984 42.6526 18.3316C42.6561 18.3091 42.6597 18.2867 42.6628 18.2638C42.6711 18.2096 42.679 18.1549 42.6869 18.0995L42.694 18.0486C42.7035 17.9798 42.7126 17.9105 42.7212 17.8402C42.724 17.8181 42.7264 17.796 42.7291 17.7736C42.736 17.7177 42.7423 17.6615 42.7481 17.6052C42.7505 17.585 42.7528 17.5651 42.7548 17.5449C42.7624 17.4726 42.7695 17.3996 42.7761 17.326C42.7761 17.3054 42.7797 17.2848 42.7813 17.2639C42.7864 17.2047 42.7915 17.1452 42.7959 17.0853C42.7959 17.0633 42.7994 17.0412 42.801 17.0191C42.8065 16.9428 42.8116 16.8659 42.8164 16.7886C42.8164 16.771 42.8164 16.7511 42.8191 16.7354C42.8227 16.6711 42.8263 16.6063 42.829 16.5412C42.829 16.5176 42.829 16.494 42.8322 16.4705C42.8353 16.39 42.8385 16.3092 42.8409 16.2272C42.8409 16.216 42.8409 16.2044 42.8409 16.1928C42.843 16.1199 42.8445 16.0463 42.8456 15.972C42.8456 15.9476 42.8456 15.9233 42.8456 15.899C42.8456 15.8191 42.8456 15.7388 42.8456 15.658V15.6393C42.8456 15.5532 42.8456 15.466 42.8456 15.3773V15.3024C42.8456 15.2276 42.8424 15.149 42.8405 15.0712V15.0289C42.8377 14.9391 42.8341 14.8481 42.8306 14.7568C42.8306 14.7332 42.8282 14.7093 42.8274 14.6857C42.824 14.6088 42.8201 14.5315 42.8156 14.4537C42.8156 14.4346 42.8156 14.4162 42.8124 14.3956C42.8069 14.3021 42.8009 14.2078 42.7943 14.1127L42.7895 14.0465C42.7836 13.9671 42.7777 13.8874 42.771 13.807C42.771 13.7838 42.7674 13.7606 42.7655 13.7374C42.7572 13.6401 42.7481 13.5416 42.7386 13.4428C42.7386 13.4241 42.7347 13.4054 42.7331 13.3863C42.7248 13.3021 42.7157 13.2172 42.7066 13.1315C42.7039 13.1056 42.7011 13.0802 42.698 13.0544C42.6869 12.9526 42.6751 12.8504 42.6624 12.7467C42.6624 12.734 42.6589 12.7213 42.6573 12.7093C42.646 12.6165 42.634 12.5232 42.6214 12.4294C42.6174 12.4017 42.6139 12.374 42.6099 12.3463C42.5952 12.24 42.5801 12.1328 42.5645 12.0248C40.9855 1.3686 29.796 3.09798 29.796 3.09798L30.1544 5.38761L23.3872 12.1652L23.6829 14.7822L26.2464 16.2792C26.3607 16.0038 26.5074 15.7416 26.6838 15.4974C28.3378 13.6887 31.5467 12.2688 32.4653 11.9743C32.6492 11.9155 32.7538 11.886 32.7538 11.886C28.3599 17.2773 28.8596 23.4538 29.0554 24.9261C28.8517 24.9635 28.6942 25.1967 28.6942 25.4811C28.6942 25.791 28.8809 26.0425 29.1111 26.0425H30.5239C28.1742 26.9749 26.3091 28.7509 25.3357 30.9825C25.3345 30.9856 25.3332 30.9886 25.3317 30.9915C25.2599 31.1572 25.1931 31.3252 25.1312 31.4956C25.1313 31.4973 25.1313 31.4991 25.1312 31.5008C25.1146 31.5472 25.0984 31.5936 25.0827 31.6404C25.0767 31.6573 25.0708 31.6741 25.0653 31.6913C25.0511 31.7332 25.0379 31.7755 25.0258 31.8182C25.0187 31.8399 25.012 31.862 25.0053 31.8837C24.9927 31.9237 24.9804 31.9641 24.9686 32.0046L24.9473 32.0794C24.9362 32.1168 24.9252 32.1569 24.9149 32.1958C24.9074 32.2235 24.9003 32.2508 24.8932 32.2785C24.8837 32.3159 24.8738 32.3534 24.8648 32.3908C24.8557 32.4282 24.847 32.4656 24.8383 32.5053C24.8296 32.545 24.8186 32.5914 24.8091 32.6348H24.2458C24.1375 32.6325 24.0298 32.6508 23.929 32.6885C23.8282 32.7263 23.7364 32.7827 23.659 32.8545C23.5815 32.9264 23.52 33.0122 23.4779 33.1068C23.4359 33.2015 23.4143 33.3032 23.4143 33.4059C23.4143 33.5086 23.4359 33.6103 23.4779 33.705C23.52 33.7997 23.5815 33.8855 23.659 33.9573C23.7364 34.0291 23.8282 34.0856 23.929 34.1233C24.0298 34.161 24.1375 34.1793 24.2458 34.1771H44.2106C44.319 34.1793 44.4267 34.161 44.5274 34.1233C44.6282 34.0856 44.72 34.0291 44.7975 33.9573C44.8749 33.8855 44.9365 33.7997 44.9785 33.705C45.0205 33.6103 45.0421 33.5086 45.0421 33.4059C45.0421 33.3032 45.0205 33.2015 44.9785 33.1068C44.9365 33.0122 44.8749 32.9264 44.7975 32.8545C44.72 32.7827 44.6282 32.7263 44.5274 32.6885C44.4267 32.6508 44.319 32.6325 44.2106 32.6348L44.2035 32.6281Z" fill="#595653"/>
<path d="M67.5912 32.6281H67.0283C67.0283 32.6221 67.0256 32.6161 67.0244 32.6105L67.009 32.5416C66.9991 32.4963 66.9884 32.4514 66.9774 32.4069C66.9727 32.3859 66.9675 32.365 66.9624 32.344C66.9478 32.2852 66.9324 32.2265 66.9166 32.1677L66.9119 32.1509C66.8945 32.0873 66.8763 32.0239 66.8574 31.9608L66.8384 31.8998C66.8254 31.8564 66.8116 31.8133 66.799 31.7703C66.7915 31.7467 66.7836 31.7235 66.7761 31.7003C66.7623 31.6588 66.748 31.6172 66.7334 31.5761C66.7259 31.5544 66.718 31.5323 66.7105 31.5109C66.6921 31.4593 66.6732 31.408 66.6537 31.3571C66.6494 31.3463 66.6458 31.3358 66.6415 31.3249C66.6186 31.2651 66.5945 31.2056 66.57 31.1461C66.5613 31.1243 66.5522 31.103 66.5432 31.0817C66.5266 31.0443 66.51 31.0031 66.493 30.9642L66.4611 30.8919C66.4445 30.8545 66.4275 30.8171 66.4101 30.7797C66.3995 30.7565 66.3884 30.7329 66.3774 30.7097C66.3572 30.6666 66.3379 30.624 66.3154 30.5817C66.3071 30.5656 66.2996 30.5491 66.2913 30.5327C66.2633 30.4769 66.2345 30.4204 66.2053 30.3665L66.1658 30.2965L66.1101 30.1951L66.0667 30.1202C66.0485 30.0888 66.0304 30.0574 66.0118 30.0259C65.9972 30.0005 65.9822 29.975 65.9672 29.9511C65.9467 29.917 65.9278 29.8837 65.9053 29.85L65.8484 29.7587C65.8216 29.7168 65.7947 29.6745 65.7671 29.633C65.7497 29.6068 65.7324 29.581 65.7146 29.5551C65.6968 29.5293 65.6775 29.4998 65.6585 29.4724C65.6396 29.4451 65.6191 29.4178 65.6017 29.3908C65.5843 29.3639 65.5654 29.3396 65.5468 29.316C65.5283 29.2924 65.5073 29.261 65.4872 29.2337L65.4316 29.1588C65.3921 29.109 65.3558 29.0593 65.3171 29.0091L65.263 28.9406C65.2401 28.9118 65.2164 28.8834 65.1931 28.8549L65.141 28.7921C65.1169 28.7632 65.0925 28.7348 65.068 28.706L65.0167 28.6469L64.9401 28.56L64.8947 28.5099C64.8003 28.4062 64.7036 28.304 64.6046 28.2045L64.5611 28.1607L64.4703 28.072L64.4257 28.0293C64.3942 27.999 64.3626 27.9691 64.3306 27.9395L64.2978 27.9096C64.1861 27.8067 64.0712 27.7064 63.9544 27.6102L63.9224 27.5836C63.8864 27.5537 63.8501 27.5241 63.8135 27.4949L63.7772 27.4657C63.7377 27.4358 63.7018 27.4062 63.6635 27.3767L63.6441 27.3621C63.515 27.2633 63.3828 27.1671 63.2494 27.0747L63.2308 27.0616C63.1886 27.0327 63.1463 27.0043 63.1037 26.9762L63.0757 26.9579C63.0323 26.9291 62.9884 26.901 62.9446 26.8729L62.9371 26.8684C62.7919 26.7764 62.6438 26.6882 62.493 26.6039L62.4871 26.6001C62.4394 26.5735 62.3916 26.5477 62.3438 26.5219L62.3229 26.5107C62.0687 26.3747 61.8076 26.2499 61.5397 26.1364L61.5231 26.1293C61.4525 26.0994 61.3814 26.0706 61.3096 26.0421H62.7224C62.9525 26.0421 63.1392 25.791 63.1392 25.4808C63.1392 25.1705 62.9525 24.9194 62.7224 24.9194H62.3016C62.3276 24.8565 62.3565 24.7854 62.3876 24.7053C62.7855 24.4703 63.4858 23.9696 64.1806 23.0497L64.1861 23.0426C64.2388 22.9737 64.2905 22.9025 64.3413 22.8289L64.3515 22.8143C64.402 22.742 64.4526 22.6676 64.5023 22.5897L64.5157 22.5691C64.5394 22.5317 64.5631 22.4943 64.5868 22.4569C64.5868 22.4569 64.5868 22.4539 64.5896 22.452C64.614 22.4146 64.6381 22.3734 64.6622 22.3334L64.6776 22.3075C64.6981 22.2731 64.719 22.2379 64.7392 22.2024C64.7431 22.196 64.7471 22.1897 64.7506 22.1829C64.7739 22.1425 64.7972 22.1013 64.8201 22.0598L64.8359 22.031C64.8548 21.9965 64.8734 21.9617 64.8919 21.9266C64.8975 21.9168 64.903 21.9067 64.9081 21.8966C64.9302 21.8543 64.9523 21.8117 64.9744 21.7682L64.9898 21.7379C65.0072 21.7028 65.025 21.6668 65.0423 21.6309L65.0613 21.5935C65.0826 21.5493 65.1035 21.5044 65.1244 21.4591L65.1375 21.4303C65.1548 21.3929 65.1718 21.3555 65.1888 21.318L65.2089 21.2731C65.2287 21.2278 65.2484 21.1822 65.2673 21.1362C65.2709 21.1279 65.2744 21.1193 65.2776 21.1111C65.2954 21.0688 65.3127 21.0258 65.3301 20.9823L65.3498 20.9329C65.366 20.8918 65.3822 20.8502 65.398 20.8087L65.4098 20.7773C65.4284 20.7279 65.4466 20.6773 65.4647 20.6276L65.4837 20.5744C65.4979 20.5347 65.5117 20.4943 65.5255 20.4539C65.5306 20.4389 65.5358 20.424 65.5405 20.409C65.5579 20.3574 65.5752 20.3046 65.5922 20.2518C65.5977 20.2335 65.6037 20.2144 65.6092 20.1972L65.6487 20.0741C65.6538 20.0561 65.6593 20.0366 65.6645 20.0205C65.6806 19.9663 65.6968 19.9109 65.7122 19.8551C65.7174 19.8375 65.7221 19.8196 65.7268 19.8016C65.7387 19.7586 65.7505 19.7155 65.762 19.6717C65.7671 19.6519 65.7722 19.6321 65.7777 19.6122C65.7924 19.5546 65.807 19.4966 65.8212 19.4378L65.833 19.3888C65.8441 19.342 65.8551 19.2949 65.8658 19.2473L65.88 19.1837C65.8934 19.1227 65.9068 19.0617 65.9195 18.9996C65.9222 18.9876 65.9246 18.9753 65.927 18.9622C65.938 18.9087 65.9487 18.8544 65.9589 18.8001C65.9633 18.778 65.9672 18.756 65.9716 18.7339C65.9818 18.6781 65.9917 18.6216 66.0016 18.5658C66.0035 18.5539 66.0059 18.5423 66.0079 18.5307C66.0189 18.4648 66.0297 18.3984 66.0403 18.3316C66.0438 18.3091 66.0474 18.2867 66.0505 18.2638C66.0588 18.2096 66.0667 18.1549 66.0746 18.0995L66.0817 18.0486C66.0912 17.9798 66.1003 17.9105 66.1089 17.8402C66.1117 17.8181 66.1141 17.796 66.1168 17.7736C66.1237 17.7177 66.13 17.6615 66.1358 17.6052C66.1382 17.585 66.1405 17.5651 66.1425 17.5449C66.1501 17.4726 66.1572 17.3996 66.1638 17.326C66.1638 17.3054 66.1674 17.2848 66.1689 17.2639C66.1741 17.2047 66.1792 17.1452 66.1836 17.0853C66.1836 17.0633 66.1871 17.0412 66.1887 17.0191C66.1942 16.9428 66.1993 16.8659 66.2041 16.7886C66.2041 16.771 66.2041 16.7511 66.2068 16.7354C66.2104 16.6711 66.2139 16.6063 66.2167 16.5412C66.2167 16.5176 66.2167 16.494 66.2199 16.4705C66.223 16.39 66.2262 16.3092 66.2286 16.2272C66.2286 16.216 66.2286 16.2044 66.2286 16.1928C66.2307 16.1199 66.2322 16.0463 66.2333 15.972C66.2333 15.9476 66.2333 15.9233 66.2333 15.899C66.2333 15.8191 66.2333 15.7388 66.2333 15.658V15.6393C66.2333 15.5532 66.2333 15.466 66.2333 15.3773V15.3024C66.2333 15.2276 66.2301 15.149 66.2282 15.0712V15.0289C66.2254 14.9391 66.2218 14.8481 66.2183 14.7568C66.2183 14.7332 66.2159 14.7093 66.2151 14.6857C66.2117 14.6088 66.2078 14.5315 66.2033 14.4537C66.2033 14.4346 66.2033 14.4162 66.2001 14.3956C66.1946 14.3021 66.1886 14.2078 66.182 14.1127L66.1772 14.0465C66.1713 13.9671 66.1654 13.8874 66.1587 13.807C66.1587 13.7838 66.1551 13.7606 66.1532 13.7374C66.1449 13.6401 66.1358 13.5416 66.1263 13.4428C66.1263 13.4241 66.1224 13.4054 66.1208 13.3863C66.1125 13.3021 66.1034 13.2172 66.0943 13.1315C66.0916 13.1056 66.0888 13.0802 66.0857 13.0544C66.0746 12.9526 66.0628 12.8504 66.0501 12.7467C66.0501 12.734 66.0466 12.7213 66.045 12.7093C66.0337 12.6165 66.0217 12.5232 66.0091 12.4294C66.0051 12.4017 66.0016 12.374 65.9976 12.3463C65.9829 12.24 65.9678 12.1328 65.9522 12.0248C64.3732 1.3686 53.1837 3.09798 53.1837 3.09798L53.5421 5.38761L46.7749 12.1652L47.0706 14.7822L49.6341 16.2792C49.7484 16.0038 49.8951 15.7416 50.0715 15.4974C51.7255 13.6887 54.9344 12.2688 55.853 11.9743C56.0369 11.9155 56.1415 11.886 56.1415 11.886C51.7476 17.2773 52.2473 23.4538 52.4431 24.9261C52.2394 24.9635 52.0819 25.1967 52.0819 25.4811C52.0819 25.791 52.2686 26.0425 52.4988 26.0425H53.9116C51.5619 26.9749 49.6968 28.7509 48.7234 30.9825C48.7222 30.9856 48.7209 30.9886 48.7194 30.9915C48.6476 31.1572 48.5808 31.3252 48.5189 31.4956C48.519 31.4973 48.519 31.4991 48.5189 31.5008C48.5023 31.5472 48.4861 31.5936 48.4704 31.6404C48.4644 31.6573 48.4585 31.6741 48.453 31.6913C48.4388 31.7332 48.4256 31.7755 48.4135 31.8182C48.4064 31.8399 48.3997 31.862 48.393 31.8837C48.3803 31.9237 48.3681 31.9641 48.3563 32.0046L48.335 32.0794C48.3239 32.1168 48.3128 32.1569 48.3026 32.1958C48.2951 32.2235 48.288 32.2508 48.2809 32.2785C48.2714 32.3159 48.2615 32.3534 48.2525 32.3908C48.2434 32.4282 48.2347 32.4656 48.226 32.5053C48.2173 32.545 48.2063 32.5914 48.1968 32.6348H47.6335C47.5252 32.6325 47.4175 32.6508 47.3167 32.6885C47.2159 32.7263 47.1241 32.7827 47.0466 32.8545C46.9692 32.9264 46.9077 33.0122 46.8656 33.1068C46.8236 33.2015 46.802 33.3032 46.802 33.4059C46.802 33.5086 46.8236 33.6103 46.8656 33.705C46.9077 33.7997 46.9692 33.8855 47.0466 33.9573C47.1241 34.0291 47.2159 34.0856 47.3167 34.1233C47.4175 34.161 47.5252 34.1793 47.6335 34.1771H67.5983C67.7067 34.1793 67.8144 34.161 67.9151 34.1233C68.0159 34.0856 68.1077 34.0291 68.1852 33.9573C68.2626 33.8855 68.3242 33.7997 68.3662 33.705C68.4082 33.6103 68.4298 33.5086 68.4298 33.4059C68.4298 33.3032 68.4082 33.2015 68.3662 33.1068C68.3242 33.0122 68.2626 32.9264 68.1852 32.8545C68.1077 32.7827 68.0159 32.7263 67.9151 32.6885C67.8144 32.6508 67.7067 32.6325 67.5983 32.6348L67.5912 32.6281Z" fill="#595653"/>
<path d="M90.9784 32.6281H90.4155C90.4155 32.6221 90.4128 32.6161 90.4116 32.6105L90.3962 32.5416C90.3863 32.4963 90.3757 32.4514 90.3646 32.4069C90.3599 32.3859 90.3547 32.365 90.3496 32.344C90.335 32.2852 90.3196 32.2265 90.3038 32.1677L90.2991 32.1509C90.2817 32.0873 90.2635 32.0239 90.2446 31.9608L90.2256 31.8998C90.2126 31.8564 90.1988 31.8133 90.1862 31.7703C90.1787 31.7467 90.1708 31.7235 90.1633 31.7003C90.1495 31.6588 90.1352 31.6172 90.1206 31.5761C90.1131 31.5544 90.1052 31.5323 90.0977 31.5109C90.0793 31.4593 90.0604 31.408 90.0409 31.3571C90.0366 31.3463 90.033 31.3358 90.0287 31.3249C90.0058 31.2651 89.9817 31.2056 89.9572 31.1461C89.9485 31.1243 89.9395 31.103 89.9304 31.0817C89.9138 31.0443 89.8972 31.0031 89.8802 30.9642L89.8483 30.8919C89.8317 30.8545 89.8147 30.8171 89.7973 30.7797C89.7867 30.7565 89.7756 30.7329 89.7646 30.7097C89.7444 30.6666 89.7251 30.624 89.7026 30.5817C89.6943 30.5656 89.6868 30.5491 89.6785 30.5327C89.6505 30.4769 89.6217 30.4204 89.5925 30.3665L89.553 30.2965L89.4973 30.1951L89.4539 30.1202C89.4358 30.0888 89.4176 30.0574 89.399 30.0259C89.3844 30.0005 89.3694 29.975 89.3544 29.9511C89.3339 29.917 89.315 29.8837 89.2925 29.85L89.2356 29.7587C89.2088 29.7168 89.1819 29.6745 89.1543 29.633C89.1369 29.6068 89.1196 29.581 89.1018 29.5551C89.084 29.5293 89.0647 29.4998 89.0457 29.4724C89.0268 29.4451 89.0063 29.4178 88.9889 29.3908C88.9715 29.3639 88.9526 29.3396 88.934 29.316C88.9155 29.2924 88.8946 29.261 88.8744 29.2337L88.8188 29.1588C88.7793 29.109 88.743 29.0593 88.7043 29.0091L88.6502 28.9406C88.6273 28.9118 88.6036 28.8834 88.5803 28.8549L88.5282 28.7921C88.5041 28.7632 88.4797 28.7348 88.4552 28.706L88.4039 28.6469L88.3273 28.56L88.2819 28.5099C88.1876 28.4062 88.0908 28.304 87.9918 28.2045L87.9483 28.1607L87.8575 28.072L87.8129 28.0293C87.7814 27.999 87.7498 27.9691 87.7178 27.9395L87.685 27.9096C87.5733 27.8067 87.4585 27.7064 87.3416 27.6102L87.3096 27.5836C87.2736 27.5537 87.2373 27.5241 87.2007 27.4949L87.1644 27.4657C87.1249 27.4358 87.089 27.4062 87.0507 27.3767L87.0313 27.3621C86.9022 27.2633 86.77 27.1671 86.6366 27.0747L86.618 27.0616C86.5758 27.0327 86.5336 27.0043 86.4909 26.9762L86.4629 26.9579C86.4195 26.9291 86.3757 26.901 86.3318 26.8729L86.3243 26.8684C86.1791 26.7764 86.031 26.6882 85.8802 26.6039L85.8743 26.6001C85.8266 26.5735 85.7788 26.5477 85.731 26.5219L85.7101 26.5107C85.4559 26.3747 85.1948 26.2499 84.9269 26.1364L84.9103 26.1293C84.8397 26.0994 84.7686 26.0706 84.6968 26.0421H86.1096C86.3397 26.0421 86.5265 25.791 86.5265 25.4808C86.5265 25.1705 86.3397 24.9194 86.1096 24.9194H85.6888C85.7148 24.8565 85.7437 24.7854 85.7748 24.7053C86.1728 24.4703 86.873 23.9696 87.5678 23.0497L87.5733 23.0426C87.626 22.9737 87.6777 22.9025 87.7285 22.8289L87.7387 22.8143C87.7893 22.742 87.8398 22.6676 87.8895 22.5897L87.9029 22.5691C87.9266 22.5317 87.9503 22.4943 87.974 22.4569C87.974 22.4569 87.974 22.4539 87.9768 22.452C88.0012 22.4146 88.0253 22.3734 88.0494 22.3334L88.0648 22.3075C88.0853 22.2731 88.1062 22.2379 88.1264 22.2024C88.1303 22.196 88.1343 22.1897 88.1378 22.1829C88.1611 22.1425 88.1844 22.1013 88.2073 22.0598L88.2231 22.031C88.242 21.9965 88.2606 21.9617 88.2791 21.9266C88.2847 21.9168 88.2902 21.9067 88.2953 21.8966C88.3174 21.8543 88.3395 21.8117 88.3616 21.7682L88.377 21.7379C88.3944 21.7028 88.4122 21.6668 88.4295 21.6309L88.4485 21.5935C88.4698 21.5493 88.4907 21.5044 88.5116 21.4591L88.5247 21.4303C88.542 21.3929 88.559 21.3555 88.576 21.318L88.5961 21.2731C88.6159 21.2278 88.6356 21.1822 88.6545 21.1362C88.6581 21.1279 88.6616 21.1193 88.6648 21.1111C88.6826 21.0688 88.6999 21.0258 88.7173 20.9823L88.737 20.9329C88.7532 20.8918 88.7694 20.8502 88.7852 20.8087L88.7971 20.7773C88.8156 20.7279 88.8338 20.6773 88.8519 20.6276L88.8709 20.5744C88.8851 20.5347 88.8989 20.4943 88.9127 20.4539C88.9178 20.4389 88.923 20.424 88.9277 20.409C88.9451 20.3574 88.9625 20.3046 88.9794 20.2518C88.985 20.2335 88.9909 20.2144 88.9964 20.1972L89.0359 20.0741C89.041 20.0561 89.0465 20.0366 89.0517 20.0205C89.0678 19.9663 89.084 19.9109 89.0994 19.8551C89.1046 19.8375 89.1093 19.8196 89.114 19.8016C89.1259 19.7586 89.1377 19.7155 89.1492 19.6717C89.1543 19.6519 89.1594 19.6321 89.165 19.6122C89.1796 19.5546 89.1942 19.4966 89.2084 19.4378L89.2202 19.3888C89.2313 19.342 89.2423 19.2949 89.253 19.2473L89.2672 19.1837C89.2806 19.1227 89.294 19.0617 89.3067 18.9996C89.3094 18.9876 89.3118 18.9753 89.3142 18.9622C89.3252 18.9087 89.3359 18.8544 89.3461 18.8001C89.3505 18.778 89.3544 18.756 89.3588 18.7339C89.369 18.6781 89.3789 18.6216 89.3888 18.5658C89.3908 18.5539 89.3931 18.5423 89.3951 18.5307C89.4061 18.4648 89.4169 18.3984 89.4275 18.3316C89.431 18.3091 89.4346 18.2867 89.4377 18.2638C89.446 18.2096 89.4539 18.1549 89.4618 18.0995L89.4689 18.0486C89.4784 17.9798 89.4875 17.9105 89.4962 17.8402C89.4989 17.8181 89.5013 17.796 89.504 17.7736C89.5109 17.7177 89.5172 17.6615 89.523 17.6052C89.5254 17.585 89.5277 17.5651 89.5297 17.5449C89.5373 17.4726 89.5444 17.3996 89.551 17.326C89.551 17.3054 89.5546 17.2848 89.5562 17.2639C89.5613 17.2047 89.5664 17.1452 89.5708 17.0853C89.5708 17.0633 89.5743 17.0412 89.5759 17.0191C89.5814 16.9428 89.5866 16.8659 89.5913 16.7886C89.5913 16.771 89.5913 16.7511 89.594 16.7354C89.5976 16.6711 89.6012 16.6063 89.6039 16.5412C89.6039 16.5176 89.6039 16.494 89.6071 16.4705C89.6102 16.39 89.6134 16.3092 89.6158 16.2272C89.6158 16.216 89.6158 16.2044 89.6158 16.1928C89.6179 16.1199 89.6194 16.0463 89.6205 15.972C89.6205 15.9476 89.6205 15.9233 89.6205 15.899C89.6205 15.8191 89.6205 15.7388 89.6205 15.658V15.6393C89.6205 15.5532 89.6205 15.466 89.6205 15.3773V15.3024C89.6205 15.2276 89.6173 15.149 89.6154 15.0712V15.0289C89.6126 14.9391 89.6091 14.8481 89.6055 14.7568C89.6055 14.7332 89.6031 14.7093 89.6023 14.6857C89.5989 14.6088 89.595 14.5315 89.5905 14.4537C89.5905 14.4346 89.5905 14.4162 89.5873 14.3956C89.5818 14.3021 89.5758 14.2078 89.5692 14.1127L89.5644 14.0465C89.5585 13.9671 89.5526 13.8874 89.5459 13.807C89.5459 13.7838 89.5423 13.7606 89.5404 13.7374C89.5321 13.6401 89.523 13.5416 89.5135 13.4428C89.5135 13.4241 89.5096 13.4054 89.508 13.3863C89.4997 13.3021 89.4906 13.2172 89.4815 13.1315C89.4788 13.1056 89.476 13.0802 89.4729 13.0544C89.4618 12.9526 89.45 12.8504 89.4373 12.7467C89.4373 12.734 89.4338 12.7213 89.4322 12.7093C89.4209 12.6165 89.4089 12.5232 89.3963 12.4294C89.3923 12.4017 89.3888 12.374 89.3848 12.3463C89.3701 12.24 89.355 12.1328 89.3394 12.0248C87.7604 1.3686 76.5709 3.09798 76.5709 3.09798L76.9293 5.38761L70.1621 12.1652L70.4578 14.7822L73.0213 16.2792C73.1356 16.0038 73.2823 15.7416 73.4587 15.4974C75.1127 13.6887 78.3216 12.2688 79.2402 11.9743C79.4241 11.9155 79.5287 11.886 79.5287 11.886C75.1348 17.2773 75.6345 23.4538 75.8303 24.9261C75.6266 24.9635 75.4691 25.1967 75.4691 25.4811C75.4691 25.791 75.6558 26.0425 75.886 26.0425H77.2988C74.9491 26.9749 73.084 28.7509 72.1106 30.9825C72.1094 30.9856 72.1081 30.9886 72.1066 30.9915C72.0348 31.1572 71.968 31.3252 71.9061 31.4956C71.9062 31.4973 71.9062 31.4991 71.9061 31.5008C71.8895 31.5472 71.8734 31.5936 71.8576 31.6404C71.8516 31.6573 71.8457 31.6741 71.8402 31.6913C71.826 31.7332 71.8128 31.7755 71.8007 31.8182C71.7936 31.8399 71.7869 31.862 71.7802 31.8837C71.7676 31.9237 71.7553 31.9641 71.7435 32.0046L71.7222 32.0794C71.7111 32.1168 71.7001 32.1569 71.6898 32.1958C71.6823 32.2235 71.6752 32.2508 71.6681 32.2785C71.6586 32.3159 71.6487 32.3534 71.6397 32.3908C71.6306 32.4282 71.6219 32.4656 71.6132 32.5053C71.6045 32.545 71.5935 32.5914 71.584 32.6348H71.0207C70.9124 32.6325 70.8047 32.6508 70.7039 32.6885C70.6031 32.7263 70.5113 32.7827 70.4339 32.8545C70.3564 32.9264 70.2949 33.0122 70.2528 33.1068C70.2108 33.2015 70.1892 33.3032 70.1892 33.4059C70.1892 33.5086 70.2108 33.6103 70.2528 33.705C70.2949 33.7997 70.3564 33.8855 70.4339 33.9573C70.5113 34.0291 70.6031 34.0856 70.7039 34.1233C70.8047 34.161 70.9124 34.1793 71.0207 34.1771H90.9855C91.0939 34.1793 91.2016 34.161 91.3023 34.1233C91.4031 34.0856 91.4949 34.0291 91.5724 33.9573C91.6498 33.8855 91.7114 33.7997 91.7534 33.705C91.7954 33.6103 91.817 33.5086 91.817 33.4059C91.817 33.3032 91.7954 33.2015 91.7534 33.1068C91.7114 33.0122 91.6498 32.9264 91.5724 32.8545C91.4949 32.7827 91.4031 32.7263 91.3023 32.6885C91.2016 32.6508 91.0939 32.6325 90.9855 32.6348L90.9784 32.6281Z" fill="#595653"/>
<path d="M99.3346 15.6843V4.02844H102.332V8.64084H103.164L106.728 4.02844H109.991L105.496 9.4734L110.158 15.6843H106.661L103.164 10.7389H102.332V15.6843H99.3346ZM111.823 15.9008C111.734 15.9008 111.607 15.8952 111.44 15.8841C111.285 15.8841 111.163 15.873 111.074 15.8508V13.2199C111.107 13.231 111.19 13.2366 111.324 13.2366C111.546 13.2366 111.734 13.2088 111.89 13.1533C112.056 13.0867 112.195 12.9535 112.306 12.7537C112.417 12.5428 112.511 12.2375 112.589 11.8379C112.678 11.4383 112.739 10.9054 112.772 10.2394C112.805 9.56221 112.822 8.713 112.822 7.69172V4.02844H121.647V15.6843H118.633V6.47618H115.62V8.02474C115.62 9.41235 115.564 10.5779 115.453 11.5215C115.342 12.454 115.175 13.2088 114.953 13.7861C114.743 14.3633 114.482 14.8074 114.171 15.1182C113.86 15.4179 113.505 15.6233 113.105 15.7343C112.717 15.8453 112.289 15.9008 111.823 15.9008ZM126.317 15.9008C126.195 15.9008 126.073 15.8952 125.951 15.8841C125.84 15.8841 125.74 15.8675 125.651 15.8342V13.3531C125.74 13.3642 125.829 13.3754 125.918 13.3865C126.007 13.3976 126.112 13.4031 126.234 13.4031C126.556 13.4031 126.806 13.3809 126.983 13.3365C127.161 13.281 127.3 13.1922 127.4 13.0701C127.5 12.9369 127.583 12.7593 127.65 12.5372L122.971 4.02844H126.018L129.115 9.93964L131.546 4.02844H134.477L130.58 12.837C130.325 13.4142 130.07 13.8971 129.814 14.2856C129.57 14.6741 129.287 14.9905 128.965 15.2347C128.654 15.4679 128.282 15.6344 127.849 15.7343C127.428 15.8453 126.917 15.9008 126.317 15.9008ZM135.808 15.6843V4.02844H144.383V6.49283H138.805V8.22456H140.72C142.341 8.22456 143.534 8.55758 144.3 9.22364C145.077 9.87859 145.466 10.7611 145.466 11.8712C145.466 13.0701 145.077 14.0081 144.3 14.6853C143.534 15.3513 142.341 15.6843 140.72 15.6843H135.808ZM138.805 13.2199H140.387C141.109 13.2199 141.619 13.1034 141.919 12.8703C142.219 12.626 142.369 12.293 142.369 11.8712C142.369 11.4494 142.219 11.1219 141.919 10.8888C141.619 10.6445 141.109 10.5224 140.387 10.5224H138.805V13.2199ZM105.396 33.6843V29.0386C105.107 29.2273 104.724 29.3994 104.247 29.5548C103.78 29.6991 103.225 29.7713 102.582 29.7713C101.372 29.7713 100.456 29.4716 99.8341 28.8721C99.2236 28.2616 98.9183 27.2847 98.9183 25.9415V22.0284H101.916V25.4419C101.916 26.0969 102.054 26.5687 102.332 26.8573C102.609 27.1348 102.998 27.2736 103.497 27.2736C103.953 27.2736 104.336 27.2236 104.646 27.1237C104.957 27.0127 105.207 26.8962 105.396 26.7741V22.0284H108.41V33.6843H105.396ZM110.734 33.6843V22.0284H119.226V24.3263H113.731V26.6075H118.726V28.7722H113.731V31.3865H119.226V33.6843H110.734ZM124.213 33.6843V24.4928H120.633V22.0284H130.791V24.4928H127.211V33.6843H124.213ZM132.296 33.6843V22.0284H135.293V25.8915H136.708C138.329 25.8915 139.522 26.2412 140.288 26.9406C141.065 27.6399 141.454 28.589 141.454 29.7879C141.454 30.9868 141.065 31.9359 140.288 32.6353C139.522 33.3346 138.329 33.6843 136.708 33.6843H132.296ZM135.293 31.2199H136.375C137.075 31.2199 137.58 31.0867 137.89 30.8203C138.201 30.5539 138.357 30.2098 138.357 29.7879C138.357 29.3661 138.201 29.022 137.89 28.7556C137.58 28.4891 137.075 28.3559 136.375 28.3559H135.293V31.2199ZM142.286 33.6843V22.0284H145.284V33.6843H142.286ZM147.614 33.6843V22.0284H152.359C153.447 22.0284 154.341 22.1894 155.04 22.5113C155.739 22.8222 156.256 23.2773 156.589 23.8767C156.933 24.4651 157.105 25.1755 157.105 26.0081C157.105 26.8296 156.933 27.54 156.589 28.1395C156.256 28.7389 155.739 29.1996 155.04 29.5215C154.341 29.8323 153.447 29.9877 152.359 29.9877H150.611V33.6843H147.614ZM150.611 27.5234H152.026C152.792 27.5234 153.33 27.3957 153.641 27.1404C153.952 26.8851 154.107 26.5076 154.107 26.0081C154.107 25.5086 153.952 25.1311 153.641 24.8758C153.33 24.6205 152.792 24.4928 152.026 24.4928H150.611V27.5234ZM158.769 33.6843V22.0284H167.261V24.3263H161.766V26.6075H166.761V28.7722H161.766V31.3865H167.261V33.6843H158.769ZM168.422 33.6843L172.219 27.6066L168.589 22.0284H171.902L174.184 25.5585L176.498 22.0284H179.745L176.132 27.5733L179.912 33.6843H176.565L174.134 29.6048L171.703 33.6843H168.422ZM185.652 33.6843V22.0284H188.649V26.6408H189.482L193.045 22.0284H196.309L191.813 27.4734L196.475 33.6843H192.978L189.482 28.7389H188.649V33.6843H185.652ZM202.979 33.9008C202.224 33.9008 201.503 33.7898 200.814 33.5678C200.126 33.3458 199.521 32.9961 198.999 32.5187C198.478 32.0414 198.067 31.4253 197.767 30.6704C197.467 29.9045 197.318 28.9942 197.318 27.9396V27.6066C197.318 26.5853 197.467 25.7084 197.767 24.9757C198.067 24.2431 198.478 23.6436 198.999 23.1774C199.521 22.7111 200.126 22.367 200.814 22.145C201.503 21.923 202.224 21.812 202.979 21.812C203.756 21.812 204.483 21.923 205.16 22.145C205.837 22.367 206.437 22.7111 206.959 23.1774C207.48 23.6436 207.891 24.2431 208.191 24.9757C208.491 25.7084 208.64 26.5853 208.64 27.6066V27.9396C208.64 28.9942 208.491 29.9045 208.191 30.6704C207.891 31.4253 207.48 32.0414 206.959 32.5187C206.437 32.9961 205.837 33.3458 205.16 33.5678C204.483 33.7898 203.756 33.9008 202.979 33.9008ZM202.962 31.4031C203.417 31.4031 203.839 31.3032 204.228 31.1034C204.616 30.8925 204.927 30.5428 205.16 30.0544C205.404 29.5548 205.527 28.8499 205.527 27.9396V27.6066C205.527 26.7407 205.404 26.0691 205.16 25.5918C204.927 25.1145 204.616 24.7814 204.228 24.5927C203.839 24.404 203.417 24.3097 202.962 24.3097C202.529 24.3097 202.119 24.404 201.73 24.5927C201.342 24.7814 201.025 25.1145 200.781 25.5918C200.537 26.0691 200.415 26.7407 200.415 27.6066V27.9396C200.415 28.8499 200.537 29.5548 200.781 30.0544C201.025 30.5428 201.342 30.8925 201.73 31.1034C202.119 31.3032 202.529 31.4031 202.962 31.4031ZM210.547 33.6843V22.0284H213.545V26.4577H217.874V22.0284H220.871V33.6843H217.874V28.9221H213.545V33.6843H210.547ZM223.199 33.6843V22.0284H231.691V24.3263H226.196V26.6075H231.191V28.7722H226.196V31.3865H231.691V33.6843H223.199ZM233.606 33.6843V22.0284H236.603V29.022L241.182 22.0284H243.929V33.6843H240.932V26.6908L236.353 33.6843H233.606ZM238.767 21.379C237.99 21.379 237.352 21.2736 236.853 21.0627C236.364 20.8407 236.003 20.5187 235.77 20.0969C235.548 19.6751 235.437 19.1478 235.437 18.515H237.868C237.868 18.9813 237.935 19.2976 238.068 19.4641C238.212 19.6196 238.446 19.6973 238.767 19.6973C239.089 19.6973 239.317 19.6196 239.45 19.4641C239.594 19.2976 239.667 18.9813 239.667 18.515H242.098C242.098 19.1478 241.981 19.6751 241.748 20.0969C241.526 20.5187 241.171 20.8407 240.682 21.0627C240.194 21.2736 239.556 21.379 238.767 21.379Z" fill="#595653"/>
</svg>
